<svg fill="none" height="1000" viewBox="0 0 1000 1000" width="1000" xmlns="http://www.w3.org/2000/svg"><path d="m485.194 103.468s163.325 36.364 190.767 180.137c27.443 143.773 42.416 214.805 210.404 204.649 167.985-10.156 148.865 356.039-190.448 408.468-339.31 52.429-304.381-161.522-469.83-151.378-165.4493 10.144-244.5611-91.332-199.6306-221.615s237.8456-40.588 227.0376-239.329c-13.324-251.9645 231.7-180.932 231.7-180.932z" fill="#f9bde8"/><path d="m732.863 353.415s10.12 87.429 78.447 91.261-16.456-23.349-27.834-91.261-60.734-36.542-50.613 0z" fill="#f9bde8"/><path d="m452.233 798.983c1.816-15.175 6.977-41.525 14.238-72.373-181.668 2.575-321.526 18.556-321.526 37.883 0 18.841 132.882 34.49 307.704 37.67-.367-1.018-.508-2.103-.416-3.18z" fill="#1e1e1e"/><path d="m891.253 764.493c0-11.745-54.873-22.269-141.187-29.281 6.621 22.127 11.485 42.142 13.822 57.388 78.306-6.988 127.365-16.99 127.365-28.107z" fill="#1e1e1e"/><path d="m547.256 487.009s-57.685 3.879-83.881 43.388c-19.814 29.874-54.363 62.596-71.649 62.193-15.934 19.754-67.236 92.008-25.141 158.141 81.212-6.324 165.449-74.106 165.449-74.106z" fill="#54a6f7"/><path d="m463.375 530.397c-19.814 29.874-54.363 62.596-71.649 62.193-7.297 9.041-21.985 29.08-31.749 54.481 19.813 11.236 48.644 10.097 71.803-14.391 47.647-50.436 35.593-138.007 131.185-145.671h-15.709s-57.685 3.879-83.881 43.388z" fill="#298fe2"/><path clip-rule="evenodd" d="m547.256 487.009s-57.685 3.879-83.881 43.388c-19.814 29.874-54.363 62.596-71.649 62.193-15.934 19.754-67.236 92.008-25.141 158.141 81.212-6.324 165.449-74.106 165.449-74.106z" fill-rule="evenodd" stroke="#1e1e1e" stroke-width="1.4"/><path d="m391.726 592.542c-5.565-.118-9.349-3.678-10.263-11.864-3.737-33.683 37.005-111.015 30.349-112.273s-10.784 11.651-19.944 8.305c-9.159-3.346-46.164-20.786-43.673-5.813 2.492 14.972 6.383 16.076-15.245 42.711-18.983 23.326-136.382 151.865-43.804 217.89 23.278 16.61 50.187 21.356 77.439 19.221-42.095-66.121 9.207-138.375 25.141-158.177z" fill="#f9726b"/><path d="m381.463 580.678c-3.738-33.683 37.005-111.015 30.349-112.273s-10.785 11.651-19.944 8.305c-.226-.071-.475-.178-.736-.273-.083 12.814-3.559 53.758-40.766 98.831-24.132 29.245-13.312 58.8 9.634 71.851 9.764-25.402 24.452-45.441 31.749-54.482-5.588-.166-9.373-3.725-10.286-11.959z" fill="#ea5653"/><path d="m322.414 545.773c19.244-11.983 20.442-32.034 19.303-43.46-2.314 3.192-5.185 6.894-8.768 11.307-8.174 10.109-34.644 39.77-54.73 75.482 1.601 5.932 5.505 8.305 11.484 5.208 24.951-13.015 4.628-31.037 32.711-48.537z" fill="#fff"/><path clip-rule="evenodd" d="m391.726 592.542c-5.565-.118-9.349-3.678-10.263-11.864-3.737-33.683 37.005-111.015 30.349-112.273s-10.784 11.651-19.944 8.305c-9.159-3.346-46.164-20.786-43.673-5.813 2.492 14.972 6.383 16.076-15.245 42.711-18.983 23.326-136.382 151.865-43.804 217.89 23.278 16.61 50.187 21.356 77.439 19.221-42.095-66.121 9.207-138.375 25.141-158.177z" fill-rule="evenodd" stroke="#1e1e1e" stroke-width="1.4"/><path d="m399.948 441.793s10.322-3.559 9.681 8.578c-.641 12.138-5.042 39.307-18.295 40.28s8.614-48.858 8.614-48.858z" fill="#db281f"/><path d="m409.629 450.371c.641-12.161-9.681-8.578-9.681-8.578s-2.705 6.158-5.624 14.107c.522.676 1.08 1.353 1.697 2.041 0 0 12.149 9.183.925 30.468 8.922-6.894 12.149-27.799 12.683-38.038z" fill="#a8120e" opacity=".78"/><path clip-rule="evenodd" d="m399.948 441.793s10.322-3.559 9.681 8.578c-.641 12.138-5.042 39.307-18.295 40.28s8.614-48.858 8.614-48.858z" fill-rule="evenodd" stroke="#1e1e1e" stroke-width="1.4"/><path d="m399.77 443.217s-1.448 76.478-40.659 87.334c-23.35 4.117 38.547-75.731-3.56-92.697-3.571-22.091 44.219 5.363 44.219 5.363z" fill="#db281f"/><path d="m399.544 447.998c-8.661-17.251-29.898-13.549-33.007-1.59 0 0 24.073 17.37 18.663 37.789-4.259 16.123-26.102 33.22-31.096 44.527.688 1.613 2.254 2.373 5.006 1.827 33.268-9.195 39.355-65.67 40.434-82.553z" fill="#a8120e" opacity=".78"/><path clip-rule="evenodd" d="m399.77 443.217s-1.448 76.478-40.659 87.334c-23.35 4.117 38.547-75.731-3.56-92.697-3.571-22.091 44.219 5.363 44.219 5.363z" fill-rule="evenodd" stroke="#1e1e1e" stroke-width="1.4"/><path d="m357.758 506.276c3.334-9.978 27.857-.213 28.285-3.749.427-3.536-16.017-8.91-16.017-8.91s22.661 3.559 21 0-20.348-8.554-20.348-8.554 25.342 2.289 22.839-2.694-26.197-7.901-26.197-7.901 30.361-2.29 22.246-6.241c-48.442-15.175-41.371 2.705-41.371 2.705.7.273 2.076-5.825 9.432-4.164s.131 39.508.131 39.508z" fill="#f9726b"/><path d="m359.217 506.276c3.322-9.978 26.398-.213 26.826-3.749.427-3.536-16.017-8.91-16.017-8.91s22.661 3.559 21 0-20.348-8.554-20.348-8.554 25.342 2.289 22.839-2.694-26.197-7.901-26.197-7.901 30.362-2.29 22.246-6.241c-48.442-15.175-41.371 2.705-41.371 2.705" stroke="#1e1e1e" stroke-width="1.4"/><path d="m750.066 735.212c-20.811-69.609-58.883-160.17-89.589-189.024-47.991-45.156-93.491-47.576-93.491-47.576s-49.973-1.483-78.661 72.112c-17.666 45.322-35.486 106.412-47.742 155.886-7.653 30.848-13.122 57.222-15.044 72.373-.13 1.064-.013 2.145.344 3.156 22.542.392 45.796.593 69.513.593 103.624 0 197.934-3.856 268.492-10.156-2.338-15.222-7.202-35.237-13.822-57.364z" fill="#54a6f7"/><path d="m645.089 683.554c17.263-12.647 17.061-33.825 12.968-52.856-1.453-7.179-4.665-13.885-9.349-19.517 2.207 11.105 16.503 58.361-69.442 84.843 22.993 15.661 60.057-17.915 60.057-17.915" fill="#1e1e1e"/><path d="m645.089 683.554c17.263-12.647 17.061-33.825 12.968-52.856-1.453-7.179-4.665-13.885-9.349-19.517 2.207 11.105 16.503 58.361-69.442 84.843 22.993 15.661 60.057-17.915 60.057-17.915" stroke="#1e1e1e" stroke-width="1.4"/><path d="m746.851 724.771c-19.754-62.881-51.919-138.813-79.752-171.523-5.719 15.032 25.828 114.954-3.714 131.694-24.334 13.787-212.586 22.733-220.903 68.814s175.486-21.842 208.564-15.115c53.781 10.951 13.347 48.739 33.303 59.547 28.878-1.518 55.585-3.369 79.492-5.517-3.453-16.883-9.492-41.145-16.99-67.9z" fill="#298fe2"/><path d="m479.605 594.31c-14.677 41.526-28.783 90.977-39.022 132.3-7.653 30.848-13.122 57.222-15.044 72.373-.13 1.065-.013 2.145.344 3.156 22.542.392 45.796.593 69.513.593 103.624 0 197.934-3.856 268.492-10.156-2.373-15.245-7.202-35.261-13.822-57.388-20.811-69.608-58.883-160.169-89.589-189.023-47.991-45.156-113.222-59.18-113.222-59.18" stroke="#1e1e1e" stroke-width="1.4"/><path d="m479.605 594.31c-.842 5.802-28.783 90.976-39.022 132.3-23.361 14.878-56.272 21.795-56.272 21.795s60.983-50.851 95.294-154.095z" fill="#1e1e1e" stroke="#1e1e1e" stroke-width="1.4"/><path d="m603.754 484.197s224.238 1.388 216.905 193.911c-1.72 44.86-25.342 79.35-76.418 90.953-13.419-41.383-77.712-77.332-104.917-90.953 17.274-12.647 22.827-28.379 18.734-47.457-9.231-42.831-64.151-39.082-64.151-39.082-11.603-25.413-51.871-70.818 9.847-107.372z" fill="#54a6f7"/><path d="m558.813 564.887c44.906-1.021 59.559-46.046 69.999-78.804-20.323-3.559-17.867-1.685-23.088-1.839-22.162 17.571-41.359 46.449-46.912 80.643z" fill="#298fe2"/><path d="m614.563 484.719c3.559.356 209.774 21.89 166.101 200.769-6.656 23.1-30.918 36.187-64.246 43.97 12.85 12.137 23.278 25.556 27.834 39.603 51.017-11.603 74.746-46.093 76.419-90.952 6.395-166.98-161.451-190.175-206.109-193.39z" fill="#298fe2"/><path d="m594.69 570.463c3.417.605 47.755-27.039 59.073-80.417-7.688-1.519-14.806-2.646-21.13-3.476 5.813 23.562-6.265 56.605-37.943 83.893z" fill="#298fe2"/><path d="m603.754 484.197s224.237 1.388 216.905 193.911c-1.72 44.86-25.342 79.35-76.419 90.953-13.418-41.383-77.712-77.332-104.917-90.953 17.275-12.647 22.828-28.379 18.734-47.457-1.453-7.179-4.665-13.885-9.349-19.517" stroke="#1e1e1e" stroke-width="1.4"/><path d="m528.367 564.886s-24.654-99.933 49.772-108.274c66.618-7.475 75.73 62.881 16.55 113.898" fill="#54a6f7"/><path d="m528.367 564.886s-24.654-99.933 49.772-108.274c66.618-7.475 75.73 62.881 16.55 113.898" stroke="#1e1e1e" stroke-width="1.4"/><path d="m892.913 764.493c0 21.131-167.098 38.263-373.242 38.263s-373.231-17.132-373.231-38.263" stroke="#1e1e1e" stroke-width="1.4"/><path d="m461.441 453.693c13.505 0 24.452-10.948 24.452-24.452 0-13.505-10.947-24.453-24.452-24.453s-24.453 10.948-24.453 24.453c0 13.504 10.948 24.452 24.453 24.452z" fill="#f94432"/><path d="m468.227 423.937s-18.829 7.641-28.036 17.382c4.607 8.153 13.469 12.958 22.816 12.369 9.346-.588 17.535-6.466 21.083-15.134-.926-11.805-15.863-14.617-15.863-14.617z" fill="#db281f" opacity=".83"/><path clip-rule="evenodd" d="m461.441 453.693c13.505 0 24.452-10.948 24.452-24.452 0-13.505-10.947-24.453-24.452-24.453s-24.453 10.948-24.453 24.453c0 13.504 10.948 24.452 24.453 24.452z" fill-rule="evenodd" stroke="#1e1e1e" stroke-width="1.4"/><path d="m528.664 375.008s-51.017 94.263 19.956 106.46c-1.934 8.305-20.241 73.737 6.371 82.327s79.005-32.948 52.975-154.961c-5.565-18.853-13.051-81.497-79.302-33.826z" fill="#f9726b"/><path d="m607.967 408.834c-.143-.475-.285-.985-.428-1.519-11.864-25.781-30.598-43.483-55.086-45.95-8.422 3.593-16.387 8.173-23.729 13.644 0 0-1.186 2.183-2.918 5.932-1.733 3.749 43.233-10.761 56.071 16.349 2.847 14.356 6.383 22.246 12.873 14.902 6.489-7.344 19.35 37.705 7.427 92.317-8.697 39.864-46.627 34.406-59.204 45.345 2.088 6.799 5.838 11.96 12.078 13.977 26.553 8.542 78.946-32.983 52.916-154.997z" fill="#ea5653"/><path clip-rule="evenodd" d="m528.664 375.008s-51.017 94.263 19.956 106.46c-1.934 8.305-20.241 73.737 6.371 82.327s79.005-32.948 52.975-154.961c-5.565-18.853-13.051-81.497-79.302-33.826z" fill-rule="evenodd" stroke="#1e1e1e" stroke-width="1.4"/><path d="m587.287 436.004s-4.153-4.165-4.983-33.221c-.831-29.056-26.612-35.486-53.639-27.727s-77.344-6.786-81.082-54.576c-3.737-47.79 56.131-74.022 79.836-44.919 23.705 29.104 41.763 44.243 75.671 40.339 58.634-6.739 8.732 56.949 25.781 55.763 17.05-1.187 17.465 18.722-4.152 26.196-21.617 7.475 10.808 14.973 10.393 29.531s-22.127 11.236-22.127 11.236-7.949-46.984-18.627-31.619c-10.678 15.364-7.071 28.997-7.071 28.997z" fill="#f7b90d"/><path d="m612.984 438.507s21.712 3.31 22.127-11.236c.416-14.546-32.033-22.044-10.393-29.53 21.641-7.487 21.202-27.443 4.153-26.197-15.21 1.115 22.862-49.475-10.382-55.608 25.141 12.789-9.076 69.537-20.11 75.172-13.869 7.119 2.634-56.154-56.261-38.274-54.232 16.468-88.888-21.712-94.025-27.846 6.501 44.159 54.422 57.531 80.571 50.02 27.027-7.759 52.808-1.376 53.639 27.728.83 29.103 4.983 33.22 4.983 33.22s-3.559-13.739 7.119-29.115c10.678-15.377 18.579 31.666 18.579 31.666z" fill="#f98d0b"/><path clip-rule="evenodd" d="m587.287 436.004s-4.153-4.165-4.983-33.221c-.831-29.056-26.612-35.486-53.639-27.727s-77.344-6.786-81.082-54.576c-3.737-47.79 56.131-74.022 79.836-44.919 23.705 29.104 41.763 44.243 75.671 40.339 58.634-6.739 8.732 56.949 25.781 55.763 17.05-1.187 17.465 18.722-4.152 26.196-21.617 7.475 10.808 14.973 10.393 29.531s-22.127 11.236-22.127 11.236-7.949-46.984-18.627-31.619c-10.678 15.364-7.071 28.997-7.071 28.997z" fill-rule="evenodd" stroke="#1e1e1e" stroke-width="1.4"/><path d="m370.144 347.566c-56.795-37.895-127.922-92.542-172.888-133.617 52.808 81.093-52.394 268.136-52.394 268.136s131.399-37.753 191.278-37.337c4.022 0 7.961.106 11.805.225 31.951-31.31 26.126-78.673 22.199-97.407z" fill="#fff"/><path d="m144.862 482.073s131.399-37.753 191.278-37.337c4.022 0 7.961.106 11.805.225 6.117-6.007 11.207-12.977 15.068-20.632-57.981 4.485-116.58 8.756-109.01-27.004 15.566-73.559-22.424-153.561-22.424-153.561-7.328.707-14.519 2.453-21.356 5.185 15.068 90.134-65.361 233.124-65.361 233.124z" fill="#adaaaa" opacity=".64"/><path clip-rule="evenodd" d="m370.144 347.566c-56.795-37.895-127.922-92.542-172.888-133.617 52.808 81.093-52.394 268.136-52.394 268.136s131.399-37.753 191.278-37.337c4.022 0 7.961.106 11.805.225 31.951-31.31 26.126-78.673 22.199-97.407z" fill-rule="evenodd" stroke="#1e1e1e" stroke-width="1.4"/><path d="m434.745 456.28c.783.201 1.187.332 1.187.332l.071-.166c1.044.095 2.1.166 3.168.166 16.835.036 31.058-12.477 33.17-29.178 2.111-16.702-8.551-32.36-24.865-36.515-15.187-4.402-43.732-20.929-77.261-43.305 3.927 18.733 9.752 66.096-22.198 97.394 26.895.706 53.664 3.94 79.954 9.658 2.196.772 4.466 1.312 6.774 1.614z" fill="#f94432"/><path d="m468.95 438.305c-5.683-21.854-55.572-17.797-105.937-13.917-3.861 7.655-8.951 14.625-15.068 20.632 26.896.706 53.665 3.939 79.955 9.658 2.209.791 4.496 1.348 6.822 1.661.783.202 1.186.332 1.186.332l.071-.166c1.044.095 2.1.166 3.168.166 12.607.003 24.139-7.103 29.803-18.366z" fill="#db281f" opacity=".83"/><path clip-rule="evenodd" d="m434.745 456.28c.783.201 1.187.332 1.187.332l.071-.166c1.044.095 2.1.166 3.168.166 16.835.036 31.058-12.477 33.17-29.178 2.111-16.702-8.551-32.36-24.865-36.515-15.187-4.402-43.732-20.929-77.261-43.305 3.927 18.733 9.752 66.096-22.198 97.394 26.895.706 53.664 3.94 79.954 9.658 2.196.772 4.466 1.312 6.774 1.614z" fill-rule="evenodd" stroke="#1e1e1e" stroke-width="1.4"/><path d="m639.324 678.108c-21.605 15.816-71.614 19.767-133.95 26.233-112.154 11.591-143.618 67.461-140.628 68.291 2.989.831 24.452-9.005 27.893-9.563-29.02 32.153-18.983 56-14.048 55.597 4.936-.403 0-17.346 17.228-35.593-3.073 22.732.616 36.59 3.689 35.593s8.614-34.478 8.614-34.478-1.187 26.102 4.924 33.149c5.932 6.81 2.183-13.691 11.698-33.007.323-.825.72-1.619 1.186-2.372-.427.783-.83 1.566-1.186 2.372-4.331 10.334-.629 29.495 6.763 32.568 7.996 3.322-6.763-12.754 14.771-36.044 14.712-15.898 187.956 13.276 298.022-11.746-13.478-41.43-77.771-77.379-104.976-91z" fill="#f9726b"/><path d="m408.063 784.141s-1.187 26.101 4.923 33.149c5.933 6.81 2.183-13.692 11.699-33.007.323-.825.72-1.619 1.186-2.373-.427.783-.83 1.566-1.186 2.373-4.331 10.334-.629 29.495 6.762 32.568 7.997 3.322-6.762-12.754 14.772-36.044 14.711-15.899 187.955 13.276 298.022-11.746-4.556-14.048-14.985-27.466-27.834-39.603-116.639 27.288-344.365-10.406-316.958 89.161 3.085-.997 8.614-34.478 8.614-34.478z" fill="#ea5653"/><path clip-rule="evenodd" d="m639.324 678.108c-21.605 15.816-71.614 19.766-133.95 26.233-112.154 11.591-143.618 67.461-140.628 68.291 2.989.831 24.452-9.005 27.893-9.563-29.02 32.153-18.983 56-14.048 55.597 4.936-.403 0-17.346 17.228-35.593-3.073 22.732.616 36.59 3.689 35.593s8.614-34.478 8.614-34.478-1.187 26.102 4.924 33.149c5.932 6.81 2.183-13.691 11.698-33.007.323-.825.72-1.619 1.186-2.372-.427.783-.83 1.566-1.186 2.372-4.331 10.334-.629 29.495 6.763 32.568 7.996 3.322-6.763-12.754 14.771-36.044 14.712-15.898 187.956 13.276 298.022-11.746-13.478-41.43-77.771-77.379-104.976-91z" fill-rule="evenodd" stroke="#1e1e1e" stroke-width="1.4"/><path d="m230.101 365.195c19.689-83.813 2.907-159.448-37.484-168.936-40.391-9.489-89.096 50.762-108.7846 134.575-19.6888 83.812-2.9063 159.447 37.4846 168.935 40.391 9.489 89.096-50.762 108.784-134.574z" fill="#f94432"/><path d="m230.101 365.195c19.689-83.813 2.907-159.448-37.484-168.936-40.391-9.489-89.096 50.762-108.7846 134.575-19.6888 83.812-2.9063 159.447 37.4846 168.935 40.391 9.489 89.096-50.762 108.784-134.574z" fill="#db281f" opacity=".83"/><path d="m183.814 199.427c-6.989-1.547-14.273-1.086-21.012 1.329-32.164 16.112-63.9728 66.263-78.9694 130.07-7.3916 31.357-9.6221 61.564-7.3916 87.583 5.0306 34.916 19.339 59.832 40.754 64.862 37.777 8.875 83.324-47.457 101.738-125.846 18.413-78.388 2.657-149.123-35.119-157.998z" fill="#f94432"/><path clip-rule="evenodd" d="m230.101 365.195c19.689-83.813 2.907-159.448-37.484-168.936-40.391-9.489-89.096 50.762-108.7846 134.575-19.6888 83.812-2.9063 159.447 37.4846 168.935 40.391 9.489 89.096-50.762 108.784-134.574z" fill-rule="evenodd" stroke="#1e1e1e" stroke-width="1.4"/><path d="m204.324 359.135c16.242-69.14 5.302-130.853-24.437-137.839-29.738-6.986-67.013 43.4-83.2551 112.541-16.2423 69.14-5.3015 130.853 24.4371 137.839 29.738 6.986 67.013-43.4 83.255-112.541z" fill="#fff" stroke="#1e1e1e" stroke-width="1.4"/><path d="m204.968 249.768c-22.424 16.468-44.444 55.964-55.941 104.893-10.144 43.198-9.681 83.502-.653 109.366 22.424-16.468 44.445-55.976 55.941-104.893 10.144-43.198 9.682-83.502.653-109.366z" fill="#1e1e1e"/><path d="m211.694 305.424c-38.345 8.4-86.1-.593-86.1-.593l-9.491 30.206-7.51 31.204s48.478 21.771 73.939 53.52c9.66-19.265 16.974-39.619 21.783-60.627 4.202-17.621 6.674-35.609 7.379-53.71z" fill="#d8d8d8" stroke="#1e1e1e" stroke-width="1.4"/><path d="m131.311 339.229c4.031-17.159 1.315-32.475-6.065-34.208-7.38-1.734-16.631 10.771-20.662 27.93s-1.316 32.475 6.064 34.209c7.381 1.733 16.632-10.771 20.663-27.931z" fill="#f94432"/><path d="m131.314 339.214c4.022-17.156 1.305-32.473-6.075-34.206-1.09-.23-2.221-.181-3.286.143 2.372 6.929 8.02 28.474-6.063 39.093-5.069 3.856-9.138 8.873-11.865 14.629 1.305 4.508 3.56 7.558 6.585 8.305 7.415 1.708 16.67-10.737 20.704-27.964z" fill="#db281f" opacity=".83"/><path clip-rule="evenodd" d="m131.312 339.23c4.031-17.16 1.315-32.475-6.065-34.209s-16.631 10.771-20.662 27.93-1.316 32.475 6.064 34.209c7.381 1.734 16.632-10.771 20.663-27.93z" fill-rule="evenodd" stroke="#1e1e1e"/><path d="m530.967 391.109s-16.005 32.034-11.639 33.113c4.366 1.08 10.595 0 10.595 0" fill="#f9726b"/><path d="m530.967 391.109s-16.005 32.034-11.639 33.113c4.366 1.08 10.595 0 10.595 0" stroke="#1e1e1e" stroke-linecap="round"/><path d="m548.645 481.468s27.442 4.852 36.779-11.924z" fill="#f9726b"/><path d="m548.645 481.468s27.442 4.852 36.779-11.924" stroke="#1e1e1e" stroke-linecap="round"/><path d="m548.645 481.468s27.442 4.852 36.779-11.924c0 18.295-19.79 44.195-43.234 43.721 3.833-21.012 6.455-31.797 6.455-31.797z" fill="#1e1e1e" stroke="#1e1e1e" stroke-linecap="round"/><path d="m553.319 399.603c7.549 0 13.668-2.305 13.668-5.149 0-2.843-6.119-5.149-13.668-5.149-7.548 0-13.668 2.306-13.668 5.149 0 2.844 6.12 5.149 13.668 5.149z" fill="#fff" stroke="#161515"/><path d="m548.43 389.661c-5.125.736-8.791 2.598-8.791 4.746 0 2.147 3.666 4.046 8.791 4.746 2.848-.748 4.888-2.611 4.888-4.746 0-2.136-2.04-4.01-4.888-4.746z" fill="#161515"/><path d="m506.751 399.603c7.548 0 13.668-2.305 13.668-5.149 0-2.843-6.12-5.149-13.668-5.149-7.549 0-13.668 2.306-13.668 5.149 0 2.844 6.119 5.149 13.668 5.149z" fill="#fff" stroke="#161515" stroke-width="1.4"/><path d="m501.863 389.661c-5.126.736-8.78 2.598-8.78 4.746 0 2.147 3.654 4.046 8.78 4.746 2.859-.748 4.888-2.611 4.888-4.746 0-2.136-2.005-4.01-4.888-4.746z" fill="#161515"/><path d="m173.444 309.054c9.969 29.651 3.496 62.362-17.013 85.982 9.654 7.172 18.417 15.473 26.101 24.725 9.661-19.265 16.974-39.619 21.783-60.627 4.203-17.62 6.674-35.609 7.38-53.71-12.585 2.568-25.408 3.785-38.251 3.63z" fill="#1e1e1e" opacity=".51"/><path d="m440.584 876.208c49.891 0 90.335-8.934 90.335-19.955 0-11.022-40.444-19.956-90.335-19.956s-90.336 8.934-90.336 19.956c0 11.021 40.445 19.955 90.336 19.955z" fill="#1e1e1e"/><path d="m528.368 459.139c4.6 0 8.329-5.163 8.329-11.532s-3.729-11.532-8.329-11.532-8.329 5.163-8.329 11.532 3.729 11.532 8.329 11.532z" fill="#1e1e1e" stroke="#1e1e1e" stroke-linecap="round" stroke-width="1.4"/><path d="m558.811 564.886-16.693 93.99z" fill="#fff"/><path d="m558.811 564.886-16.693 93.99" stroke="#1e1e1e" stroke-width="1.4"/><path d="m554.849 594.465c4.102 0 7.427-3.326 7.427-7.428 0-4.101-3.325-7.427-7.427-7.427s-7.427 3.326-7.427 7.427c0 4.102 3.325 7.428 7.427 7.428z" fill="#fff" stroke="#1e1e1e" stroke-width="1.4"/><path d="m550.661 618.858c4.101 0 7.427-3.326 7.427-7.427 0-4.102-3.326-7.428-7.427-7.428-4.102 0-7.428 3.326-7.428 7.428 0 4.101 3.326 7.427 7.428 7.427z" fill="#fff" stroke="#1e1e1e" stroke-width="1.4"/><path d="m546.485 644.876c4.102 0 7.427-3.325 7.427-7.427s-3.325-7.427-7.427-7.427-7.427 3.325-7.427 7.427 3.325 7.427 7.427 7.427z" fill="#fff" stroke="#1e1e1e" stroke-width="1.4"/><path d="m673.778 661.048s19.137-43.756-14.961-63.297c-30.777-19.126 6.228-38.251 31.595-20.371 25.366 17.879-11.639 88.662 7.118 88.662 18.758 0-34.561 38.251-23.752-4.994z" fill="#fff"/><path d="m713.702 630.01s-12.482 21.036 0 23.919c12.481 2.883 9.147-31.156 0-23.919z" fill="#fff"/><path d="m657.559 559.915s8.067-2.907 14.842 0-7.012-16.8-14.842 0z" fill="#fff"/><path d="m471.371 719.337c-5.742 1.365-11.069 2.883-16.005 4.473" stroke="#fff" stroke-linecap="round" stroke-width="1.4"/><path d="m642.598 692.203s-40.339 17.05-145.125 22.46" stroke="#fff" stroke-linecap="round" stroke-width="1.4"/><path d="m400.267 746.91s20.395-17.488 26.102-13.537-16.42 8.732-13.051 14.558c3.37 5.825-23.657 10.215-13.051-1.021z" fill="#fff"/><path d="m318.534 562.134s-11.639 8.59-5.541 20.514c6.098 11.923 5.541-12.482 10.536-14.7 4.995-2.219 1.234-13.953-4.995-5.814z" fill="#fff"/><path d="m284.709 712.136c2.426 1.897 5.029 3.557 7.771 4.959" stroke="#fff" stroke-linecap="round" stroke-width="1.4"/><path d="m271.967 621.729s-19.185 54.576 6.252 84.237" stroke="#fff" stroke-linecap="round" stroke-width="1.4"/><path d="m361.851 465.985s-11.995-.605-10.05 3.559" stroke="#fff" stroke-linecap="round" stroke-width="1.4"/><path d="m497.473 587.037s-15.424 29.009-7.487 45.643 8.732-34.514 14.973-43.246-1.993-15.305-7.486-2.397z" fill="#fff"/><path d="m484.043 644.876c4.092 4.199 4.852 10.624 1.851 15.661-5.055 9.124-9.872-14.273-1.851-15.661z" fill="#fff"/><path d="m532.034 543.602c.573 3.274 1.399 6.499 2.468 9.646" stroke="#fff" stroke-linecap="round" stroke-width="1.4"/><path d="m536.697 490.663s-6.893 20.335-5.849 42.367" stroke="#fff" stroke-linecap="round" stroke-width="1.4"/><path d="m457.976 311.261s-.415-25.781 33.22-34.098c32.888 2.491-31.535 18.769-14.925 28.688s-16.219 34.098-18.295 5.41z" fill="#fff"/><path d="m501.97 292.539s8.85-11.639 21.059 2.088c12.208 13.727-42.261 2.907-21.059-2.088z" fill="#fff"/><path d="m546.271 312.851c9.967 6.549 25.331 13.513 44.326 11.995 34.407-2.765 27.027 19.671 27.027 19.671" stroke="#fff" stroke-linecap="round" stroke-width="1.4"/><path d="m533.719 302.529c1.85 1.945 3.832 3.76 5.932 5.434" stroke="#fff" stroke-linecap="round" stroke-width="1.4"/><path d="m423.665 392.342s2.705 10.394 6.655 5.612c3.951-4.781-7.901-11.852-6.655-5.612z" fill="#fff"/><path d="m448.093 399.212s15.281 1.447 16.954 20.774" stroke="#fff" stroke-linecap="round" stroke-width="1.4"/><path d="m379.766 376.373s-.131-19.41 9.978-9.848c10.108 9.563 14.7 20.514 23.432 18.165s7.202 9.005 1.388 9.835c-5.814.831-26.197-20.513-27.798-11.781-1.602 8.732-6.597.985-7-6.371z" fill="#fff"/><path d="m305.044 314.144c23.503 16.029 50.649 36.341 54.932 47.22 4.604 11.711 3.441 27.894-.617 40.719" stroke="#1e1e1e"/><path d="m286.155 301.615c2.824 1.815 5.932 3.821 9.112 5.932" stroke="#1e1e1e"/><path d="m269.189 290.878s3.37 2.064 8.804 5.505" stroke="#1e1e1e"/><path d="m218.018 344.576c-.609 4.01-1.293 8.135-2.052 12.375" stroke="#fff"/><path d="m198.3 219.608c14.546 12.956 29.661 41.395 21.795 109.521" stroke="#fff"/><path d="m174.796 208.135c3.902.532 7.695 1.681 11.235 3.406" stroke="#fff"/><path d="m118.618 312.637s-12.612 16.361-10.025 21.902c2.586 5.541 6.418-9.978 9.349-8.863 2.93 1.116 6.442-17.749.676-13.039z" fill="#fff"/><path d="m144.862 316.802s55.585-1.116 55.585 3.559-30.907 1.661-27.798 6.644c3.108 4.983-37.088-1.72-27.787-10.203z" fill="#fff"/><g stroke="#1e1e1e"><path d="m836.249 691.515c-.747 7.344-1.803 15.044-3.215 23.1" stroke-linecap="round" stroke-width="1.4"/><path d="m788.958 548.431s50.163 28.118 48.644 119.889" stroke-linecap="round" stroke-width="1.4"/><path d="m506.751 470.315-27.988 18.093" stroke-linecap="round" stroke-width="1.4"/><path d="m504.271 461.18-42.794 4.805" stroke-linecap="round" stroke-width="1.4"/><path d="m492.763 444.866 11.508 5.553" stroke-linecap="round" stroke-width="1.4"/><path d="m244.239 621.729s-19.291 68.315 9.765 102.034" stroke-linecap="round" stroke-width="1.4"/><path d="m71.0546 461.18c-1.3525-5.389-2.3865-10.852-3.0966-16.361" stroke-linecap="round" stroke-width="1.4"/><path d="m162.007 509.124s-33.055 20.537-60.782 3.334c-11.3185-7.024-18.9829-19.577-23.9896-32.034" stroke-linecap="round" stroke-width="1.4"/><path d="m174.797 183.22s36.78-6.655 53.924 30.765" stroke-linecap="round" stroke-width="1.4"/><path d="m67.9572 320.124-57.1271-14.653" stroke-linecap="round" stroke-width="1.4"/><path d="m52.415 280.758 26.0543 26.825" stroke-linecap="round" stroke-width="1.4"/><path d="m71.2675 341.349-39.9237 6.656" stroke-linecap="round" stroke-width="1.4"/><path d="m86.2285 519.315c7.7629 9.403 19.5695 14.505 31.7375 13.715" stroke-linecap="round" stroke-width="1.4"/></g></svg>