<?xml version="1.0" encoding="UTF-8"?>
<!DOCTYPE svg PUBLIC "-//W3C//DTD SVG 1.1//EN" "http://www.w3.org/Graphics/SVG/1.1/DTD/svg11.dtd">
<!-- Creator: CorelDRAW 2021 (64-Bit) -->
<svg xmlns="http://www.w3.org/2000/svg" xml:space="preserve" width="8.26772in" height="11.6929in" version="1.1" style="shape-rendering:geometricPrecision; text-rendering:geometricPrecision; image-rendering:optimizeQuality; fill-rule:evenodd; clip-rule:evenodd"
viewBox="0 0 8267.72 11692.91"
 xmlns:xlink="http://www.w3.org/1999/xlink"
 xmlns:xodm="http://www.corel.com/coreldraw/odm/2003">
 <defs>
  <style type="text/css">
   <![CDATA[
    .fil0 {fill:#008001;fill-rule:nonzero}
   ]]>
  </style>
 </defs>
 <g id="Layer_x0020_1">
  <metadata id="CorelCorpID_0Corel-Layer"/>
  <path class="fil0" d="M4201.3 2.73c-989.75,1.04 -1938.67,394.67 -2638.54,1094.54 -699.86,699.86 -1093.5,1648.79 -1094.53,2638.54 1.24,989.52 395,1938.14 1094.87,2637.66 699.87,699.53 1648.69,1092.84 2638.2,1093.59 989.41,-1.04 1938,-394.53 2637.62,-1094.15 699.62,-699.62 1093.11,-1648.22 1094.15,-2637.62 -1.17,-989.44 -394.69,-1938.03 -1094.26,-2637.74 -699.57,-699.71 -1648.07,-1093.43 -2637.51,-1094.81zm1316.41 4925.26l-1170.57 779.95 -1.3 1.3c-42.61,29.02 -92.98,44.45 -144.53,44.27 -51.57,0.38 -102.02,-15.07 -144.53,-44.27l-22.13 -15.63 -1149.74 -765.63c-57.45,-38.2 -97.4,-97.63 -111.07,-165.26 -13.67,-67.62 0.05,-137.91 38.15,-195.42 38.49,-57.49 98.14,-97.41 165.96,-111.08 67.81,-13.66 138.28,0.06 196.02,38.16l766.93 511.72 0 -3028.64c-0.12,-34.23 6.54,-68.15 19.58,-99.81 13.04,-31.65 32.22,-60.4 56.42,-84.61 24.2,-24.21 52.97,-43.39 84.61,-56.43 31.65,-13.04 65.57,-19.69 99.8,-19.57 69.06,0 135.3,27.43 184.14,76.28 48.84,48.83 76.28,115.07 76.28,184.14l0 3028.64 766.93 -511.72c57.52,-38.1 127.8,-51.82 195.42,-38.15 67.63,13.67 127.06,53.62 165.26,111.07 38.23,57.36 52.15,127.53 38.72,195.13 -13.43,67.62 -53.1,127.14 -110.34,165.55z"/>
 </g>
</svg>
