<?xml version="1.0" encoding="UTF-8"?>
<!DOCTYPE svg PUBLIC "-//W3C//DTD SVG 1.1//EN" "http://www.w3.org/Graphics/SVG/1.1/DTD/svg11.dtd">
<!-- Creator: CorelDRAW 2021 (64-Bit) -->
<svg xmlns="http://www.w3.org/2000/svg" xml:space="preserve" width="8.26772in" height="11.6929in" version="1.1" style="shape-rendering:geometricPrecision; text-rendering:geometricPrecision; image-rendering:optimizeQuality; fill-rule:evenodd; clip-rule:evenodd"
viewBox="0 0 8267.72 11692.91"
 xmlns:xlink="http://www.w3.org/1999/xlink"
 xmlns:xodm="http://www.corel.com/coreldraw/odm/2003">
 <defs>
  <style type="text/css">
   <![CDATA[
    .fil0 {fill:white;fill-rule:nonzero}
   ]]>
  </style>
 </defs>
 <g id="Layer_x0020_1">
  <metadata id="CorelCorpID_0Corel-Layer"/>
  <g id="_2570955924128">
   <path class="fil0" d="M7883.04 4603.85c-52.08,0 -97.66,-19.53 -136.72,-58.59l-3457.02 -3476.56c-39.06,-39.06 -91.15,-65.1 -149.74,-65.1 -52.08,0 -104.17,19.53 -149.74,65.1l-3457.03 3463.54c-39.06,39.06 -84.63,58.59 -136.72,58.59 -52.09,0 -97.66,-19.53 -130.21,-52.08 -39.06,-32.55 -58.59,-71.61 -58.59,-123.7 -6.51,-58.59 19.53,-117.19 58.59,-156.25l3437.5 -3463.54c117.19,-117.19 266.93,-182.29 429.69,-182.29 162.76,0 312.5,65.1 429.69,182.29l3457.03 3476.56c39.06,39.06 58.59,91.15 58.59,149.74 0,58.59 -32.55,110.68 -71.61,143.23 -39.06,26.04 -84.63,39.06 -123.7,39.06l-0 0z"/>
   <path class="fil0" d="M5161.68 8490.56l0 -273.44 -273.44 0 0 -494.8c0,-416.67 -338.54,-748.7 -748.69,-748.7 -416.67,0 -748.7,338.54 -748.7,748.7l0 494.79 -273.44 0 0 273.44 -1542.97 0c-332.03,0 -598.96,-266.93 -598.96,-598.96l-0 -3378.91c0,-110.68 84.63,-195.31 195.31,-195.31 110.68,0 195.31,84.63 195.31,195.31l0 3378.9c0,117.19 91.15,208.33 208.33,208.33l1425.78 0 0 -371.09c0,-631.51 514.32,-1139.32 1139.32,-1139.32 625,0 1139.32,514.32 1139.32,1139.32l0 371.09 1425.78 0c117.19,0 208.33,-91.15 208.33,-208.33l0 -3378.9c0,-110.68 84.63,-195.31 195.31,-195.31 110.68,0 195.31,84.63 195.31,195.31l0 3378.9c0,332.03 -266.93,598.96 -598.96,598.96l-1542.97 0z"/>
   <path class="fil0" d="M4888.24 8490.56l0 -390.63 390.63 0 0 390.63 -390.63 0zm-1888.02 0l0 -390.63 390.63 0 0 390.63 -390.63 0z"/>
  </g>
 </g>
</svg>
