<?xml version="1.0" encoding="iso-8859-1"?>
<!-- Uploaded to: SVG Repo, www.svgrepo.com, Generator: SVG Repo Mixer Tools -->
<!DOCTYPE svg PUBLIC "-//W3C//DTD SVG 1.1//EN" "http://www.w3.org/Graphics/SVG/1.1/DTD/svg11.dtd">
<svg fill="#000000" version="1.1" id="Capa_1" xmlns="http://www.w3.org/2000/svg" xmlns:xlink="http://www.w3.org/1999/xlink" 
	 width="800px" height="800px" viewBox="0 0 35.119 35.119"
	 xml:space="preserve">
<g>
	<path d="M34.918,14.829c-0.276,0.481-0.782,0.75-1.301,0.75c-0.255,0-0.513-0.065-0.749-0.202L17.56,6.539L2.25,15.377
		c-0.716,0.414-1.635,0.17-2.049-0.549c-0.414-0.717-0.169-1.635,0.549-2.049l16.06-9.271c0.465-0.269,1.034-0.269,1.5,0
		l16.059,9.271C35.086,13.194,35.332,14.112,34.918,14.829z M31.119,16.388v13.924c0,0.828-0.672,1.5-1.5,1.5h-6.059
		c-0.828,0-1.5-0.672-1.5-1.5v-4.418c0-2.48-2.02-4.5-4.5-4.5s-4.5,2.02-4.5,4.5v4.418c0,0.828-0.673,1.5-1.5,1.5H5.5
		c-0.828,0-1.5-0.672-1.5-1.5V16.388c0-0.536,0.286-1.031,0.75-1.299l12.06-6.961c0.465-0.268,1.034-0.268,1.5,0l12.059,6.961
		C30.832,15.356,31.119,15.852,31.119,16.388z M28.119,17.254L17.56,11.159L7,17.254v11.559h3.06v-2.918c0-4.137,3.364-7.5,7.5-7.5
		s7.5,3.363,7.5,7.5v2.918h3.059V17.254z"/>
</g>
</svg>