<?xml version="1.0" encoding="UTF-8"?>
<!DOCTYPE svg PUBLIC "-//W3C//DTD SVG 1.1//EN" "http://www.w3.org/Graphics/SVG/1.1/DTD/svg11.dtd">
<!-- Creator: CorelDRAW 2021 (64-Bit) -->
<svg xmlns="http://www.w3.org/2000/svg" xml:space="preserve" width="8.26772in" height="11.6929in" version="1.1" style="shape-rendering:geometricPrecision; text-rendering:geometricPrecision; image-rendering:optimizeQuality; fill-rule:evenodd; clip-rule:evenodd"
viewBox="0 0 8267.72 11692.91"
 xmlns:xlink="http://www.w3.org/1999/xlink"
 xmlns:xodm="http://www.corel.com/coreldraw/odm/2003">
 <defs>
  <style type="text/css">
   <![CDATA[
    .fil0 {fill:white}
   ]]>
  </style>
 </defs>
 <g id="Layer_x0020_1">
  <metadata id="CorelCorpID_0Corel-Layer"/>
  <path class="fil0" d="M3363.53 1047.33c65.12,-65.11 153.43,-101.7 245.52,-101.7l2777.78 0c575.31,0 1041.67,466.37 1041.67,1041.67l0 1388.89c0,191.76 -155.45,347.22 -347.22,347.22 -191.77,0 -347.22,-155.46 -347.22,-347.22l0 -1388.89c0,-191.76 -155.45,-347.22 -347.22,-347.22l-2430.55 0 0 1736.11c0,191.76 -155.45,347.22 -347.22,347.22l-1736.11 0 0 3819.44c0,191.77 155.46,347.22 347.22,347.22l1388.89 0c191.77,0 347.22,155.45 347.22,347.22 0,191.77 -155.45,347.22 -347.22,347.22l-1388.89 0c-575.3,0 -1041.67,-466.35 -1041.67,-1041.67l0 -4166.67c0,-92.09 36.58,-180.41 101.7,-245.52l2083.33 -2083.33zm-999.54 1981.64l897.85 0 0 -897.85 -897.85 897.85zm4776.87 4082.43c181.77,-274.44 287.64,-603.57 287.64,-957.43 0,-958.82 -777.29,-1736.11 -1736.11,-1736.11 -958.82,0 -1736.11,777.29 -1736.11,1736.11 0,958.82 777.29,1736.11 1736.11,1736.11 353.85,0 682.98,-105.87 957.43,-287.64l880.38 880.38c135.59,135.59 355.45,135.59 491.04,0 135.59,-135.59 135.59,-355.45 0,-491.04l-880.38 -880.38zm-2490.14 -957.43c0,-575.31 466.35,-1041.67 1041.67,-1041.67 575.31,0 1041.67,466.35 1041.67,1041.67 0,575.31 -466.35,1041.67 -1041.67,1041.67 -575.31,0 -1041.67,-466.35 -1041.67,-1041.67z"/>
 </g>
</svg>
