<?xml version="1.0" encoding="UTF-8"?>
<!DOCTYPE svg PUBLIC "-//W3C//DTD SVG 1.1//EN" "http://www.w3.org/Graphics/SVG/1.1/DTD/svg11.dtd">
<!-- Creator: CorelDRAW 2021 (64-Bit) -->
<svg xmlns="http://www.w3.org/2000/svg" xml:space="preserve" width="8.26772in" height="11.6929in" version="1.1" style="shape-rendering:geometricPrecision; text-rendering:geometricPrecision; image-rendering:optimizeQuality; fill-rule:evenodd; clip-rule:evenodd"
viewBox="0 0 8267.72 11692.91"
 xmlns:xlink="http://www.w3.org/1999/xlink"
 xmlns:xodm="http://www.corel.com/coreldraw/odm/2003">
 <defs>
  <style type="text/css">
   <![CDATA[
    .str0 {stroke:white;stroke-width:694.44;stroke-linecap:round;stroke-linejoin:round;stroke-miterlimit:2.61313}
    .fil0 {fill:none}
   ]]>
  </style>
 </defs>
 <g id="Layer_x0020_1">
  <metadata id="CorelCorpID_0Corel-Layer"/>
  <path class="fil0 str0" d="M3130.07 1590.02c80.38,-180.34 120.59,-270.51 176.56,-298.28 48.61,-24.13 105.69,-24.13 154.3,0 55.97,27.77 96.18,117.94 176.56,298.28l640.28 1436.43c23.78,53.31 35.66,79.97 54.06,100.38 16.25,18.06 36.15,32.51 58.33,42.4 25.11,11.18 54.13,14.24 112.19,20.37l1563.99 165.07c196.35,20.72 294.52,31.08 338.23,75.73 37.95,38.78 55.59,93.09 47.67,146.78 -9.09,61.8 -82.43,127.88 -229.09,260.07l-1168.3 1052.85c-43.33,39.06 -65.04,58.61 -78.75,82.39 -12.15,21.08 -19.76,44.44 -22.29,68.61 -2.88,27.33 3.16,55.87 15.28,112.99l326.32 1538.44c40.97,193.16 61.46,289.72 32.5,345.07 -25.17,48.12 -71.35,81.67 -124.86,90.73 -61.6,10.42 -147.12,-38.89 -318.16,-137.54l-1362.33 -785.76c-50.56,-29.17 -75.83,-43.72 -102.71,-49.44 -23.79,-5.04 -48.37,-5.04 -72.15,0 -26.87,5.73 -52.15,20.28 -102.7,49.44l-1362.32 785.76c-171.04,98.65 -256.55,147.95 -318.15,137.54 -53.51,-9.06 -99.7,-42.61 -124.86,-90.73 -28.95,-55.35 -8.47,-151.91 32.5,-345.07l326.31 -1538.44c12.11,-57.12 18.17,-85.66 15.29,-112.99 -2.54,-24.17 -10.14,-47.53 -22.29,-68.61 -13.73,-23.78 -35.41,-43.33 -78.77,-82.39l-1168.27 -1052.85c-146.67,-132.19 -220,-198.26 -229.12,-260.07 -7.92,-53.7 9.72,-108 47.69,-146.78 43.71,-44.65 141.89,-55.01 338.24,-75.73l1563.99 -165.07c58.05,-6.13 87.07,-9.19 112.17,-20.37 22.2,-9.89 42.09,-24.33 58.36,-42.4 18.38,-20.41 30.26,-47.07 54.03,-100.38l640.29 -1436.43z"/>
 </g>
</svg>
