<?xml version="1.0" encoding="iso-8859-1"?>
<!-- Uploaded to: SVG Repo, www.svgrepo.com, Generator: SVG Repo Mixer Tools -->
<svg fill="#000000" height="800px" width="800px" version="1.1" id="Capa_1" xmlns="http://www.w3.org/2000/svg" xmlns:xlink="http://www.w3.org/1999/xlink" 
	 viewBox="0 0 490 490" xml:space="preserve">
<g>
	<path d="M245,490c135.31,0,245-109.69,245-245S380.31,0,245,0C109.69,0,0,109.69,0,245S109.69,490,245,490z M245,30.625
		c118.207,0,214.375,96.168,214.375,214.375S363.207,459.375,245,459.375c-118.207,0-214.375-96.168-214.375-214.375
		S126.793,30.625,245,30.625z"/>
	<ellipse cx="245" cy="172.087" rx="60.359" ry="59.157"/>
	<path d="M245,244.28c-57.571,0-104.242,45.741-104.242,102.166h208.484C349.242,290.021,302.571,244.28,245,244.28z"/>
</g>
</svg>